<?xml version="1.0" encoding="utf-8"?>
<!-- Svg Vector Icons : http://www.onlinewebfonts.com/icon -->
<!DOCTYPE svg PUBLIC "-//W3C//DTD SVG 1.1//EN" "http://www.w3.org/Graphics/SVG/1.1/DTD/svg11.dtd">
<svg version="1.1" xmlns="http://www.w3.org/2000/svg" xmlns:xlink="http://www.w3.org/1999/xlink" x="0px" y="0px" viewBox="0 0 1000 1000" enable-background="new 0 0 1000 1000" xml:space="preserve">
<metadata> Svg Vector Icons : http://www.onlinewebfonts.com/icon </metadata>
<g><path fill="red" d="M531.5,670.4V266.3c0-19.7-14.1-35.7-31.4-35.7c-17.4,0-31.4,16-31.4,35.7v404.1c-47.3,13.6-82,57.2-82,108.8c0,62.6,50.8,113.4,113.4,113.4c62.6,0,113.4-50.8,113.4-113.4C613.4,727.6,578.8,684,531.5,670.4z"/><path d="M624.6,599.6V493.1h57.1c8,0,14.5-6.6,14.5-14.6c0-8-6.5-14.5-14.5-14.5h-57.1v-59.4h57.1c8,0,14.5-6.5,14.5-14.5c0-8-6.5-14.5-14.5-14.5h-57.1v-59.4h57.1c8,0,14.5-6.5,14.5-14.5c0-8.1-6.5-14.6-14.5-14.6h-57.1v-59.3h57.1c8,0,14.5-6.5,14.5-14.6c0-8-6.5-14.5-14.5-14.5h-57.1v-95.5c0-52.5-58-93.2-107.8-93.2h-33.5c-49.8,0-107.8,40.7-107.8,93.2v496.4c-55.7,35.1-86.3,98.3-86.3,179.6C289.2,895.5,383.8,990,500,990c116.2,0,210.8-94.5,210.8-210.8C710.8,697.9,680.3,634.7,624.6,599.6z M500,946.3c-92.2,0-167.1-74.9-167.1-167.1c0-40.5,9.6-113.4,74.7-147.8l11.6-6.1V103.2c0-25.5,36.1-49.6,64.1-49.6h33.5c28,0,64.1,24.1,64.1,49.6v522.1l11.6,6.1c64.9,34.4,74.7,107.4,74.7,147.8C667.1,871.4,592.3,946.3,500,946.3z"/></g>
</svg>